{
  "accessors": [
    {
      "bufferView": 2,
      "componentType": 5126,
      "count": 4796,
      "max": [
        22.44009780883789,
        33.945011138916016,
        19.32990837097168
      ],
      "min": [
        -26.559532165527344,
        -0.180209681391716,
        -29.598270416259766
      ],
      "type": "VEC3"
    },
    {
      "bufferView": 2,
      "byteOffset": 57552,
      "componentType": 5126,
      "count": 4796,
      "max": [
        0.9991602897644043,
        1.0,
        0.9996638298034668
      ],
      "min": [
        -0.9999758005142212,
        -0.9984021782875061,
        -0.9997507929801941
      ],
      "type": "VEC3"
    },
    {
      "bufferView": 3,
      "componentType": 5126,
      "count": 4796,
      "max": [
        0.9995518922805786,
        0.9997389316558838,
        0.9998660087585449,
        1.0
      ],
      "min": [
        -0.9997836947441101,
        -0.9996227622032166,
        -0.9997594356536865,
        -1.0
      ],
      "type": "VEC4"
    },
    {
      "bufferView": 1,
      "componentType": 5126,
      "count": 4796,
      "max": [
        0.9451452493667603,
        1.0
      ],
      "min": [
        0.0,
        0.02467319369316101
      ],
      "type": "VEC2"
    },
    {
      "bufferView": 1,
      "byteOffset": 38368,
      "componentType": 5126,
      "count": 4796,
      "max": [
        0.9451452493667603,
        1.0
      ],
      "min": [
        0.0,
        0.02467319369316101
      ],
      "type": "VEC2"
    },
    {
      "bufferView": 0,
      "componentType": 5125,
      "count": 21318,
      "type": "SCALAR"
    }
  ],
  "asset": {
    "extras": {
      "author": "Paul (https://sketchfab.com/nathan.d1563)",
      "license": "CC-BY-4.0 (http://creativecommons.org/licenses/by/4.0/)",
      "source": "https://sketchfab.com/3d-models/growing-tree-73f6fd026f6d465ea8608ee239a938d5",
      "title": "Growing Tree"
    },
    "generator": "Sketchfab-12.66.0",
    "version": "2.0"
  },
  "bufferViews": [
    {
      "buffer": 0,
      "byteLength": 85272,
      "name": "floatBufferViews",
      "target": 34963
    },
    {
      "buffer": 0,
      "byteLength": 76736,
      "byteOffset": 85272,
      "byteStride": 8,
      "name": "floatBufferViews",
      "target": 34962
    },
    {
      "buffer": 0,
      "byteLength": 115104,
      "byteOffset": 162008,
      "byteStride": 12,
      "name": "floatBufferViews",
      "target": 34962
    },
    {
      "buffer": 0,
      "byteLength": 76736,
      "byteOffset": 277112,
      "byteStride": 16,
      "name": "floatBufferViews",
      "target": 34962
    }
  ],
  "buffers": [
    {
      "byteLength": 353848,
      "uri": "scene.bin"
    }
  ],
  "images": [
    {
      "uri": "textures/Little_tree_baseColor.png"
    },
    {
      "uri": "textures/Little_tree_metallicRoughness.png"
    },
    {
      "uri": "textures/Little_tree_normal.png"
    }
  ],
  "materials": [
    {
      "alphaMode": "BLEND",
      "doubleSided": true,
      "name": "Little_tree",
      "normalTexture": {
        "index": 2
      },
      "pbrMetallicRoughness": {
        "baseColorTexture": {
          "index": 0
        },
        "metallicFactor": 0.0,
        "metallicRoughnessTexture": {
          "index": 1
        }
      }
    }
  ],
  "meshes": [
    {
      "name": "Bark8_Little_tree_0",
      "primitives": [
        {
          "attributes": {
            "NORMAL": 1,
            "POSITION": 0,
            "TANGENT": 2,
            "TEXCOORD_0": 3,
            "TEXCOORD_1": 4
          },
          "indices": 5,
          "material": 0,
          "mode": 4
        }
      ]
    }
  ],
  "nodes": [
    {
      "children": [
        1
      ],
      "matrix": [
        1.0,
        0.0,
        0.0,
        0.0,
        0.0,
        2.220446049250313e-16,
        -1.0,
        0.0,
        0.0,
        1.0,
        2.220446049250313e-16,
        0.0,
        0.0,
        0.0,
        0.0,
        1.0
      ],
      "name": "Sketchfab_model"
    },
    {
      "children": [
        2
      ],
      "matrix": [
        1.0,
        0.0,
        0.0,
        0.0,
        0.0,
        0.0,
        1.0,
        0.0,
        0.0,
        -1.0,
        0.0,
        0.0,
        0.0,
        0.0,
        0.0,
        1.0
      ],
      "name": "1Scene.fbx"
    },
    {
      "children": [
        3
      ],
      "name": "RootNode"
    },
    {
      "children": [
        4
      ],
      "name": "Bark8"
    },
    {
      "mesh": 0,
      "name": "Bark8_Little_tree_0"
    }
  ],
  "samplers": [
    {
      "magFilter": 9729,
      "minFilter": 9987,
      "wrapS": 10497,
      "wrapT": 10497
    }
  ],
  "scene": 0,
  "scenes": [
    {
      "name": "Sketchfab_Scene",
      "nodes": [
        0
      ]
    }
  ],
  "textures": [
    {
      "sampler": 0,
      "source": 0
    },
    {
      "sampler": 0,
      "source": 1
    },
    {
      "sampler": 0,
      "source": 2
    }
  ]
}
