{
  "accessors": [
    {
      "bufferView": 2,
      "componentType": 5126,
      "count": 9911,
      "max": [
        0.17443600296974182,
        0.21947899460792542,
        0.4588199853897095
      ],
      "min": [
        -0.20638099312782288,
        -0.16354699432849884,
        -0.17686399817466736
      ],
      "type": "VEC3"
    },
    {
      "bufferView": 2,
      "byteOffset": 118932,
      "componentType": 5126,
      "count": 9911,
      "max": [
        0.9999880790710449,
        0.9999096393585205,
        0.9996604323387146
      ],
      "min": [
        -0.9999861717224121,
        -0.9998741149902344,
        -0.9999170303344727
      ],
      "type": "VEC3"
    },
    {
      "bufferView": 1,
      "componentType": 5126,
      "count": 9911,
      "max": [
        0.9937220215797424,
        0.9889490008354187
      ],
      "min": [
        0.005799000151455402,
        0.012602999806404114
      ],
      "type": "VEC2"
    },
    {
      "bufferView": 0,
      "componentType": 5125,
      "count": 56838,
      "type": "SCALAR"
    }
  ],
  "asset": {
    "extras": {
      "author": "boris.veremeenko (https://sketchfab.com/boris.veremeenko)",
      "license": "CC-BY-4.0 (http://creativecommons.org/licenses/by/4.0/)",
      "source": "https://sketchfab.com/3d-models/pear-03-128b95a54ba04a988f9ad676f276b341",
      "title": "Pear_03"
    },
    "generator": "Sketchfab-15.37.0",
    "version": "2.0"
  },
  "bufferViews": [
    {
      "buffer": 0,
      "byteLength": 227352,
      "name": "floatBufferViews",
      "target": 34963
    },
    {
      "buffer": 0,
      "byteLength": 79288,
      "byteOffset": 227352,
      "byteStride": 8,
      "name": "floatBufferViews",
      "target": 34962
    },
    {
      "buffer": 0,
      "byteLength": 237864,
      "byteOffset": 306640,
      "byteStride": 12,
      "name": "floatBufferViews",
      "target": 34962
    }
  ],
  "buffers": [
    {
      "byteLength": 544504,
      "uri": "scene.bin"
    }
  ],
  "images": [
    {
      "uri": "textures/Pear_03_Middle_Poly_mat_baseColor.jpeg"
    }
  ],
  "materials": [
    {
      "doubleSided": true,
      "name": "Pear_03_Middle_Poly_mat",
      "pbrMetallicRoughness": {
        "baseColorTexture": {
          "index": 0
        },
        "metallicFactor": 0.0,
        "roughnessFactor": 0.8011823178082373
      }
    }
  ],
  "meshes": [
    {
      "name": "Object_0",
      "primitives": [
        {
          "attributes": {
            "NORMAL": 1,
            "POSITION": 0,
            "TEXCOORD_0": 2
          },
          "indices": 3,
          "material": 0,
          "mode": 4
        }
      ]
    }
  ],
  "nodes": [
    {
      "children": [
        1
      ],
      "matrix": [
        1.0,
        0.0,
        0.0,
        0.0,
        0.0,
        2.220446049250313e-16,
        -1.0,
        0.0,
        0.0,
        1.0,
        2.220446049250313e-16,
        0.0,
        0.0,
        0.0,
        0.0,
        1.0
      ],
      "name": "Sketchfab_model"
    },
    {
      "children": [
        2
      ],
      "name": "Pear_03_Middle_Poly.obj.cleaner.materialmerger.gles"
    },
    {
      "mesh": 0,
      "name": "Object_2"
    }
  ],
  "samplers": [
    {
      "magFilter": 9729,
      "minFilter": 9987,
      "wrapS": 10497,
      "wrapT": 10497
    }
  ],
  "scene": 0,
  "scenes": [
    {
      "name": "Sketchfab_Scene",
      "nodes": [
        0
      ]
    }
  ],
  "textures": [
    {
      "sampler": 0,
      "source": 0
    }
  ]
}
