{
  "accessors": [
    {
      "bufferView": 2,
      "componentType": 5126,
      "count": 24510,
      "max": [
        8479881.0,
        7843934.5,
        14247338.0
      ],
      "min": [
        -6828267.0,
        -7610594.0,
        2311959.25
      ],
      "type": "VEC3"
    },
    {
      "bufferView": 2,
      "byteOffset": 294120,
      "componentType": 5126,
      "count": 24510,
      "max": [
        0.9999718070030212,
        0.9998737573623657,
        0.9999201893806458
      ],
      "min": [
        -0.999970018863678,
        -0.9999730587005615,
        -0.9960996508598328
      ],
      "type": "VEC3"
    },
    {
      "bufferView": 3,
      "componentType": 5126,
      "count": 24510,
      "max": [
        1.0,
        1.0,
        1.0,
        1.0
      ],
      "min": [
        -1.0,
        -1.0,
        -1.0,
        -1.0
      ],
      "type": "VEC4"
    },
    {
      "bufferView": 1,
      "componentType": 5126,
      "count": 24510,
      "max": [
        0.9452864527702332,
        1.0
      ],
      "min": [
        0.054141584783792496,
        0.0
      ],
      "type": "VEC2"
    },
    {
      "bufferView": 1,
      "byteOffset": 196080,
      "componentType": 5126,
      "count": 24510,
      "max": [
        0.3741985857486725,
        0.0
      ],
      "min": [
        0.3741985857486725,
        0.0
      ],
      "type": "VEC2"
    },
    {
      "bufferView": 1,
      "byteOffset": 392160,
      "componentType": 5126,
      "count": 24510,
      "max": [
        0.9452864527702332,
        1.0
      ],
      "min": [
        0.054141584783792496,
        0.0
      ],
      "type": "VEC2"
    },
    {
      "bufferView": 0,
      "componentType": 5125,
      "count": 64224,
      "type": "SCALAR"
    },
    {
      "bufferView": 2,
      "byteOffset": 588240,
      "componentType": 5126,
      "count": 4548,
      "max": [
        7439390.5,
        6671647.0,
        13573612.0
      ],
      "min": [
        -5528661.5,
        -6854287.5,
        -1817617.75
      ],
      "type": "VEC3"
    },
    {
      "bufferView": 2,
      "byteOffset": 642816,
      "componentType": 5126,
      "count": 4548,
      "max": [
        0.9997648596763611,
        0.9999820590019226,
        0.9939239025115967
      ],
      "min": [
        -0.9998906850814819,
        -0.9999131560325623,
        -0.9986493587493896
      ],
      "type": "VEC3"
    },
    {
      "bufferView": 3,
      "byteOffset": 392160,
      "componentType": 5126,
      "count": 4548,
      "max": [
        1.0,
        1.0,
        1.0,
        1.0
      ],
      "min": [
        -1.0,
        -1.0,
        -1.0,
        -1.0
      ],
      "type": "VEC4"
    },
    {
      "bufferView": 1,
      "byteOffset": 588240,
      "componentType": 5126,
      "count": 4548,
      "max": [
        2.0094501972198486,
        6.5244951248168945
      ],
      "min": [
        -0.985425591468811,
        -1.0318355560302734
      ],
      "type": "VEC2"
    },
    {
      "bufferView": 1,
      "byteOffset": 624624,
      "componentType": 5126,
      "count": 4548,
      "max": [
        0.9999439120292664,
        0.9998179078102112
      ],
      "min": [
        0.00017733614367898554,
        0.0
      ],
      "type": "VEC2"
    },
    {
      "bufferView": 1,
      "byteOffset": 661008,
      "componentType": 5126,
      "count": 4548,
      "max": [
        2.0094501972198486,
        6.5244951248168945
      ],
      "min": [
        -0.985425591468811,
        -1.0318355560302734
      ],
      "type": "VEC2"
    },
    {
      "bufferView": 0,
      "byteOffset": 256896,
      "componentType": 5125,
      "count": 17832,
      "type": "SCALAR"
    }
  ],
  "asset": {
    "extras": {
      "author": "Georgeous (https://sketchfab.com/intice184)",
      "license": "CC-BY-4.0 (http://creativecommons.org/licenses/by/4.0/)",
      "source": "https://sketchfab.com/3d-models/petiolate-oak-tree-748ebed1c5f244bb8f470c4ad5557431",
      "title": "Petiolate oak tree"
    },
    "generator": "Sketchfab-16.73.0",
    "version": "2.0"
  },
  "bufferViews": [
    {
      "buffer": 0,
      "byteLength": 328224,
      "name": "floatBufferViews",
      "target": 34963
    },
    {
      "buffer": 0,
      "byteLength": 697392,
      "byteOffset": 328224,
      "byteStride": 8,
      "name": "floatBufferViews",
      "target": 34962
    },
    {
      "buffer": 0,
      "byteLength": 697392,
      "byteOffset": 1025616,
      "byteStride": 12,
      "name": "floatBufferViews",
      "target": 34962
    },
    {
      "buffer": 0,
      "byteLength": 464928,
      "byteOffset": 1723008,
      "byteStride": 16,
      "name": "floatBufferViews",
      "target": 34962
    }
  ],
  "buffers": [
    {
      "byteLength": 2187936,
      "uri": "scene.bin"
    }
  ],
  "images": [
    {
      "uri": "textures/M_Branch.004_baseColor.png"
    },
    {
      "uri": "textures/M_Branch.004_normal.png"
    },
    {
      "uri": "textures/M_Bark.004_baseColor.png"
    },
    {
      "uri": "textures/M_Bark.004_normal.png"
    }
  ],
  "materials": [
    {
      "alphaCutoff": 0.40685838280649994,
      "alphaMode": "MASK",
      "doubleSided": true,
      "name": "M_Branch.004",
      "normalTexture": {
        "index": 1
      },
      "pbrMetallicRoughness": {
        "baseColorTexture": {
          "index": 0
        },
        "metallicFactor": 0.0
      }
    },
    {
      "doubleSided": true,
      "name": "M_Bark.004",
      "normalTexture": {
        "index": 3
      },
      "pbrMetallicRoughness": {
        "baseColorTexture": {
          "index": 2
        },
        "metallicFactor": 0.0
      }
    }
  ],
  "meshes": [
    {
      "name": "Oak01_LOD0_M_Branch.004_0",
      "primitives": [
        {
          "attributes": {
            "NORMAL": 1,
            "POSITION": 0,
            "TANGENT": 2,
            "TEXCOORD_0": 3,
            "TEXCOORD_1": 4,
            "TEXCOORD_2": 5
          },
          "indices": 6,
          "material": 0,
          "mode": 4
        }
      ]
    },
    {
      "name": "Oak01_LOD0_M_Bark.004_0",
      "primitives": [
        {
          "attributes": {
            "NORMAL": 8,
            "POSITION": 7,
            "TANGENT": 9,
            "TEXCOORD_0": 10,
            "TEXCOORD_1": 11,
            "TEXCOORD_2": 12
          },
          "indices": 13,
          "material": 1,
          "mode": 4
        }
      ]
    }
  ],
  "nodes": [
    {
      "children": [
        1
      ],
      "matrix": [
        -0.9963698387145996,
        0.08513041585683823,
        1.8902749556035265e-17,
        0.0,
        0.0,
        2.220446049250313e-16,
        -1.0,
        0.0,
        -0.08513041585683823,
        -0.9963698387145996,
        -2.2123854719660043e-16,
        0.0,
        0.0,
        0.0,
        0.0,
        1.0
      ],
      "name": "Sketchfab_model"
    },
    {
      "children": [
        2
      ],
      "matrix": [
        0.009999999776482582,
        0.0,
        0.0,
        0.0,
        0.0,
        -0.009999999776482582,
        0.0,
        0.0,
        0.0,
        0.0,
        -0.009999999776482582,
        0.0,
        0.0,
        0.0,
        0.0,
        1.0
      ],
      "name": "SM_Oak.fbx"
    },
    {
      "children": [
        3
      ],
      "name": "RootNode"
    },
    {
      "children": [
        4,
        5
      ],
      "matrix": [
        0.00015085779887158223,
        -2.4577858064961933e-11,
        0.0,
        0.0,
        2.4577858064961933e-11,
        0.00015085779887158223,
        0.0,
        0.0,
        0.0,
        0.0,
        0.00015085779887158424,
        0.0,
        0.0,
        0.0,
        0.0,
        1.0
      ],
      "name": "Oak01_LOD0"
    },
    {
      "mesh": 0,
      "name": "Oak01_LOD0_M_Branch.004_0"
    },
    {
      "mesh": 1,
      "name": "Oak01_LOD0_M_Bark.004_0"
    }
  ],
  "samplers": [
    {
      "magFilter": 9729,
      "minFilter": 9987,
      "wrapS": 10497,
      "wrapT": 10497
    }
  ],
  "scene": 0,
  "scenes": [
    {
      "name": "Sketchfab_Scene",
      "nodes": [
        0
      ]
    }
  ],
  "textures": [
    {
      "sampler": 0,
      "source": 0
    },
    {
      "sampler": 0,
      "source": 1
    },
    {
      "sampler": 0,
      "source": 2
    },
    {
      "sampler": 0,
      "source": 3
    }
  ]
}
