{
  "accessors": [
    {
      "bufferView": 2,
      "componentType": 5126,
      "count": 54733,
      "max": [
        1.3723676204681396,
        0.3395819664001465,
        0.3530590832233429
      ],
      "min": [
        -1.5643006563186646,
        -0.5629944801330566,
        -0.48377183079719543
      ],
      "type": "VEC3"
    },
    {
      "bufferView": 2,
      "byteOffset": 656796,
      "componentType": 5126,
      "count": 54733,
      "max": [
        0.9998874664306641,
        0.9999964833259583,
        0.9999744296073914
      ],
      "min": [
        -0.9993754029273987,
        -0.9999996423721313,
        -0.9999873638153076
      ],
      "type": "VEC3"
    },
    {
      "bufferView": 1,
      "componentType": 5126,
      "count": 54733,
      "max": [
        0.8544740080833435,
        1.0
      ],
      "min": [
        1.5999999959603883e-05,
        0.0007110000005923212
      ],
      "type": "VEC2"
    },
    {
      "bufferView": 0,
      "componentType": 5125,
      "count": 319722,
      "type": "SCALAR"
    }
  ],
  "asset": {
    "extras": {
      "author": "ruda5 (https://sketchfab.com/ruda5)",
      "license": "CC-BY-4.0 (http://creativecommons.org/licenses/by/4.0/)",
      "source": "https://sketchfab.com/3d-models/cucumber-9231e77e152d4e54b1673eae6686ba0d",
      "title": "Cucumber"
    },
    "generator": "Sketchfab-12.66.0",
    "version": "2.0"
  },
  "bufferViews": [
    {
      "buffer": 0,
      "byteLength": 1278888,
      "name": "floatBufferViews",
      "target": 34963
    },
    {
      "buffer": 0,
      "byteLength": 437864,
      "byteOffset": 1278888,
      "byteStride": 8,
      "name": "floatBufferViews",
      "target": 34962
    },
    {
      "buffer": 0,
      "byteLength": 1313592,
      "byteOffset": 1716752,
      "byteStride": 12,
      "name": "floatBufferViews",
      "target": 34962
    }
  ],
  "buffers": [
    {
      "byteLength": 3030344,
      "uri": "scene.bin"
    }
  ],
  "images": [
    {
      "uri": "textures/material_baseColor.jpeg"
    }
  ],
  "materials": [
    {
      "doubleSided": true,
      "name": "material",
      "pbrMetallicRoughness": {
        "baseColorTexture": {
          "index": 0
        },
        "metallicFactor": 0.0,
        "roughnessFactor": 0.9084269016713077
      }
    }
  ],
  "meshes": [
    {
      "name": "default_og_0",
      "primitives": [
        {
          "attributes": {
            "NORMAL": 1,
            "POSITION": 0,
            "TEXCOORD_0": 2
          },
          "indices": 3,
          "material": 0,
          "mode": 4
        }
      ]
    }
  ],
  "nodes": [
    {
      "children": [
        1
      ],
      "matrix": [
        1.0,
        0.0,
        0.0,
        0.0,
        0.0,
        2.220446049250313e-16,
        -1.0,
        0.0,
        0.0,
        1.0,
        2.220446049250313e-16,
        0.0,
        0.0,
        0.0,
        0.0,
        1.0
      ],
      "name": "Sketchfab_model"
    },
    {
      "children": [
        2
      ],
      "matrix": [
        1.0,
        0.0,
        0.0,
        0.0,
        0.0,
        0.0,
        1.0,
        0.0,
        0.0,
        -1.0,
        0.0,
        0.0,
        0.0,
        0.0,
        0.0,
        1.0
      ],
      "name": "og f m.FBX"
    },
    {
      "children": [
        3
      ],
      "name": "RootNode"
    },
    {
      "children": [
        4
      ],
      "matrix": [
        1.0,
        0.0,
        0.0,
        0.0,
        0.0,
        2.220446049250313e-16,
        -1.0,
        0.0,
        0.0,
        1.0,
        2.220446049250313e-16,
        0.0,
        -0.15871526300907135,
        0.3899317979812622,
        -0.12195396423339844,
        1.0
      ],
      "name": "default"
    },
    {
      "mesh": 0,
      "name": "default_og_0"
    }
  ],
  "samplers": [
    {
      "magFilter": 9729,
      "minFilter": 9987,
      "wrapS": 10497,
      "wrapT": 10497
    }
  ],
  "scene": 0,
  "scenes": [
    {
      "name": "Sketchfab_Scene",
      "nodes": [
        0
      ]
    }
  ],
  "textures": [
    {
      "sampler": 0,
      "source": 0
    }
  ]
}
