{
  "accessors": [
    {
      "bufferView": 2,
      "componentType": 5126,
      "count": 729,
      "max": [
        0.41617777943611145,
        0.47210007905960083,
        2.5219857692718506
      ],
      "min": [
        -0.23475301265716553,
        -0.19389492273330688,
        1.85382080078125
      ],
      "type": "VEC3"
    },
    {
      "bufferView": 2,
      "byteOffset": 8748,
      "componentType": 5126,
      "count": 729,
      "max": [
        0.999874472618103,
        0.9952218532562256,
        0.9951119422912598
      ],
      "min": [
        -0.99781733751297,
        -0.9990270733833313,
        -0.9987430572509766
      ],
      "type": "VEC3"
    },
    {
      "bufferView": 3,
      "componentType": 5126,
      "count": 729,
      "max": [
        0.9987644553184509,
        0.9895936846733093,
        0.9761320948600769,
        1.0
      ],
      "min": [
        -0.9990679025650024,
        -0.5991544127464294,
        -0.9994849562644958,
        1.0
      ],
      "type": "VEC4"
    },
    {
      "bufferView": 1,
      "componentType": 5126,
      "count": 729,
      "max": [
        0.9765889644622803,
        0.988041341304779
      ],
      "min": [
        0.020461827516555786,
        0.007153838872909546
      ],
      "type": "VEC2"
    },
    {
      "bufferView": 0,
      "componentType": 5125,
      "count": 3945,
      "type": "SCALAR"
    }
  ],
  "asset": {
    "extras": {
      "author": "TheBlenderGoon (https://sketchfab.com/TheBlenderGoon)",
      "license": "CC-BY-4.0 (http://creativecommons.org/licenses/by/4.0/)",
      "source": "https://sketchfab.com/3d-models/orange-7b662da74e914c7ba12701cc42cb8138",
      "title": "Orange"
    },
    "generator": "Sketchfab-13.78.0",
    "version": "2.0"
  },
  "bufferViews": [
    {
      "buffer": 0,
      "byteLength": 15780,
      "name": "floatBufferViews",
      "target": 34963
    },
    {
      "buffer": 0,
      "byteLength": 5832,
      "byteOffset": 15780,
      "byteStride": 8,
      "name": "floatBufferViews",
      "target": 34962
    },
    {
      "buffer": 0,
      "byteLength": 17496,
      "byteOffset": 21612,
      "byteStride": 12,
      "name": "floatBufferViews",
      "target": 34962
    },
    {
      "buffer": 0,
      "byteLength": 11664,
      "byteOffset": 39108,
      "byteStride": 16,
      "name": "floatBufferViews",
      "target": 34962
    }
  ],
  "buffers": [
    {
      "byteLength": 50772,
      "uri": "ene.bin"
    }
  ],
  "extensionsRequired": [
    "KHR_materials_pbrSpecularGlossiness"
  ],
  "extensionsUsed": [
    "KHR_materials_pbrSpecularGlossiness"
  ],
  "images": [
    {
      "uri": "textures/Material.002_diffuse.png"
    },
    {
      "uri": "textures/Material.002_specularGlossiness.png"
    },
    {
      "uri": "textures/Material.002_normal.png"
    }
  ],
  "materials": [
    {
      "extensions": {
        "KHR_materials_pbrSpecularGlossiness": {
          "diffuseFactor": [
            1.0,
            1.0,
            1.0,
            1.0
          ],
          "diffuseTexture": {
            "index": 0
          },
          "glossinessFactor": 0.5515972128342457,
          "specularFactor": [
            0.13853627279949207,
            0.13853627279949207,
            0.13853627279949207
          ],
          "specularGlossinessTexture": {
            "index": 1
          }
        }
      },
      "name": "Material.002",
      "normalTexture": {
        "index": 2
      }
    }
  ],
  "meshes": [
    {
      "name": "Orange LP_Material.002_0",
      "primitives": [
        {
          "attributes": {
            "NORMAL": 1,
            "POSITION": 0,
            "TANGENT": 2,
            "TEXCOORD_0": 3
          },
          "indices": 4,
          "material": 0,
          "mode": 4
        }
      ]
    }
  ],
  "nodes": [
    {
      "children": [
        1
      ],
      "matrix": [
        1.0,
        0.0,
        0.0,
        0.0,
        0.0,
        2.220446049250313e-16,
        -1.0,
        0.0,
        0.0,
        1.0,
        2.220446049250313e-16,
        0.0,
        0.0,
        0.0,
        0.0,
        1.0
      ],
      "name": "Sketchfab_model"
    },
    {
      "children": [
        2
      ],
      "matrix": [
        0.009999999776482582,
        0.0,
        0.0,
        0.0,
        0.0,
        0.0,
        0.009999999776482582,
        0.0,
        0.0,
        -0.009999999776482582,
        0.0,
        0.0,
        0.0,
        0.0,
        0.0,
        1.0
      ],
      "name": "1c0d6a36f0f245b19ab707495397c575.fbx"
    },
    {
      "children": [
        3
      ],
      "name": "RootNode"
    },
    {
      "children": [
        4
      ],
      "matrix": [
        100.0,
        0.0,
        0.0,
        0.0,
        0.0,
        -1.629206793918314e-05,
        -99.99999999999868,
        0.0,
        0.0,
        99.99999999999868,
        -1.629206793918314e-05,
        0.0,
        0.0,
        0.0,
        0.0,
        1.0
      ],
      "name": "Orange LP"
    },
    {
      "mesh": 0,
      "name": "Orange LP_Material.002_0"
    }
  ],
  "samplers": [
    {
      "magFilter": 9729,
      "minFilter": 9987,
      "wrapS": 10497,
      "wrapT": 10497
    }
  ],
  "scene": 0,
  "scenes": [
    {
      "name": "Sketchfab_Scene",
      "nodes": [
        0
      ]
    }
  ],
  "textures": [
    {
      "sampler": 0,
      "source": 0
    },
    {
      "sampler": 0,
      "source": 1
    },
    {
      "sampler": 0,
      "source": 2
    }
  ]
}
