{
  "accessors": [
    {
      "bufferView": 2,
      "componentType": 5126,
      "count": 65532,
      "max": [
        1.7042490243911743,
        15.700223922729492,
        1.1830480098724365
      ],
      "min": [
        -0.6182529926300049,
        12.622597694396973,
        -1.4375940561294556
      ],
      "type": "VEC3"
    },
    {
      "bufferView": 2,
      "byteOffset": 786384,
      "componentType": 5126,
      "count": 65532,
      "max": [
        0.9999878406524658,
        0.9999943971633911,
        0.9999486207962036
      ],
      "min": [
        -0.9999852776527405,
        -0.9993698596954346,
        -0.9999584555625916
      ],
      "type": "VEC3"
    },
    {
      "bufferView": 1,
      "componentType": 5126,
      "count": 65532,
      "max": [
        0.9368339776992798,
        0.9998499751091003
      ],
      "min": [
        0.0003819999983534217,
        0.0017859999788925052
      ],
      "type": "VEC2"
    },
    {
      "bufferView": 0,
      "componentType": 5125,
      "count": 362136,
      "type": "SCALAR"
    },
    {
      "bufferView": 2,
      "byteOffset": 1572768,
      "componentType": 5126,
      "count": 47862,
      "max": [
        1.7042490243911743,
        15.771650314331055,
        1.1820670366287231
      ],
      "min": [
        -0.7167040109634399,
        12.907713890075684,
        -1.4375940561294556
      ],
      "type": "VEC3"
    },
    {
      "bufferView": 2,
      "byteOffset": 2147112,
      "componentType": 5126,
      "count": 47862,
      "max": [
        0.9999878406524658,
        0.9999943971633911,
        0.9997404217720032
      ],
      "min": [
        -0.9999904632568359,
        -0.9889745712280273,
        -0.9999584555625916
      ],
      "type": "VEC3"
    },
    {
      "bufferView": 1,
      "byteOffset": 524256,
      "componentType": 5126,
      "count": 47862,
      "max": [
        0.9423980116844177,
        0.9988769888877869
      ],
      "min": [
        0.0017269999952986836,
        0.00044999999227002263
      ],
      "type": "VEC2"
    },
    {
      "bufferView": 0,
      "byteOffset": 1448544,
      "componentType": 5125,
      "count": 237864,
      "type": "SCALAR"
    }
  ],
  "asset": {
    "extras": {
      "author": "mjkzz (https://sketchfab.com/mjkzz)",
      "license": "CC-BY-4.0 (http://creativecommons.org/licenses/by/4.0/)",
      "source": "https://sketchfab.com/3d-models/purple-onion-70fdef1abc1744e3a3e0a828d6821fbf",
      "title": "Purple Onion"
    },
    "generator": "Sketchfab-12.67.0",
    "version": "2.0"
  },
  "bufferViews": [
    {
      "buffer": 0,
      "byteLength": 2400000,
      "name": "floatBufferViews",
      "target": 34963
    },
    {
      "buffer": 0,
      "byteLength": 907152,
      "byteOffset": 2400000,
      "byteStride": 8,
      "name": "floatBufferViews",
      "target": 34962
    },
    {
      "buffer": 0,
      "byteLength": 2721456,
      "byteOffset": 3307152,
      "byteStride": 12,
      "name": "floatBufferViews",
      "target": 34962
    }
  ],
  "buffers": [
    {
      "byteLength": 6028608,
      "uri": "scene.bin"
    }
  ],
  "images": [
    {
      "uri": "textures/material_baseColor.jpeg"
    }
  ],
  "materials": [
    {
      "doubleSided": true,
      "name": "material",
      "pbrMetallicRoughness": {
        "baseColorTexture": {
          "index": 0
        },
        "metallicFactor": 0.0
      }
    }
  ],
  "meshes": [
    {
      "name": "Object_0",
      "primitives": [
        {
          "attributes": {
            "NORMAL": 1,
            "POSITION": 0,
            "TEXCOORD_0": 2
          },
          "indices": 3,
          "material": 0,
          "mode": 4
        }
      ]
    },
    {
      "name": "Object_1",
      "primitives": [
        {
          "attributes": {
            "NORMAL": 5,
            "POSITION": 4,
            "TEXCOORD_0": 6
          },
          "indices": 7,
          "material": 0,
          "mode": 4
        }
      ]
    }
  ],
  "nodes": [
    {
      "children": [
        1
      ],
      "matrix": [
        0.9947661757469177,
        0.09811927378177643,
        -0.028511133044958094,
        0.0,
        -6.938893903907228e-18,
        -0.27903488278388955,
        -0.9602809548377992,
        0.0,
        -0.10217767208814621,
        0.9552550315856935,
        -0.2775744497776029,
        0.0,
        -0.010419708676636219,
        3.9073500633239746,
        -0.5851446390151969,
        1.0
      ],
      "name": "Sketchfab_model"
    },
    {
      "children": [
        2,
        3
      ],
      "name": "dyc.obj.cleaner.materialmerger.gles"
    },
    {
      "mesh": 0,
      "name": "Object_2"
    },
    {
      "mesh": 1,
      "name": "Object_3"
    }
  ],
  "samplers": [
    {
      "magFilter": 9729,
      "minFilter": 9987,
      "wrapS": 10497,
      "wrapT": 10497
    }
  ],
  "scene": 0,
  "scenes": [
    {
      "name": "Sketchfab_Scene",
      "nodes": [
        0
      ]
    }
  ],
  "textures": [
    {
      "sampler": 0,
      "source": 0
    }
  ]
}
